<svg width="32" height="32" viewBox="0 0 32 32" fill="" xmlns="http://www.w3.org/2000/svg">
<mask id="mask0" mask-type="alpha" maskUnits="userSpaceOnUse" x="6" y="2" width="20" height="28">
<path fill-rule="evenodd" clip-rule="evenodd" d="M6.66669 4.16675C6.66669 3.33832 7.33826 2.66675 8.16669 2.66675H23.8334C24.6618 2.66675 25.3334 3.33832 25.3334 4.16675V27.8334C25.3334 28.6618 24.6618 29.3334 23.8334 29.3334H8.16669C7.33826 29.3334 6.66669 28.6618 6.66669 27.8334V4.16675ZM9.33335 6.33342C9.33335 5.78113 9.78107 5.33341 10.3334 5.33341H21.6667C22.219 5.33341 22.6667 5.78113 22.6667 6.33341V24.3334C22.6667 24.8857 22.219 25.3334 21.6667 25.3334H10.3334C9.78107 25.3334 9.33335 24.8857 9.33335 24.3334V6.33342ZM11.7525 11.5197L15.8123 9.36253C15.9296 9.30017 16.0703 9.30017 16.1877 9.36253L20.2474 11.5197C20.5305 11.6702 20.5305 12.0758 20.2474 12.2262L16.1877 14.3834C16.0703 14.4458 15.9296 14.4458 15.8123 14.3834L11.7525 12.2262C11.4694 12.0758 11.4694 11.6702 11.7525 11.5197ZM11.2544 12.8378L15.3666 15.0229C15.4972 15.0923 15.5789 15.2282 15.5789 15.3761V19.6905C15.5789 19.9922 15.2576 20.1853 14.9912 20.0438L10.879 17.8587C10.7483 17.7893 10.6667 17.6534 10.6667 17.5054V13.191C10.6667 12.8893 10.988 12.6962 11.2544 12.8378ZM20.7456 12.8378L16.6334 15.0229C16.5027 15.0923 16.4211 15.2282 16.4211 15.3761V19.6905C16.4211 19.9922 16.7424 20.1853 17.0088 20.0438L21.121 17.8587C21.2516 17.7893 21.3333 17.6534 21.3333 17.5054V13.191C21.3333 12.8893 21.012 12.6962 20.7456 12.8378Z" fill=""/>
</mask>
<g mask="url(#mask0)">
<rect width="32" height="32" fill=""/>
</g>
</svg>
