<svg width="130" height="12" viewBox="0 0 130 12" fill="" xmlns="http://www.w3.org/2000/svg">
<path d="M3.50391 5.19727C2.53906 4.91992 1.83594 4.58008 1.39453 4.17773C0.957031 3.77148 0.738281 3.27148 0.738281 2.67773C0.738281 2.00586 1.00586 1.45117 1.54102 1.01367C2.08008 0.572266 2.7793 0.351562 3.63867 0.351562C4.22461 0.351562 4.74609 0.464844 5.20312 0.691406C5.66406 0.917969 6.01953 1.23047 6.26953 1.62891C6.52344 2.02734 6.65039 2.46289 6.65039 2.93555H5.51953C5.51953 2.41992 5.35547 2.01562 5.02734 1.72266C4.69922 1.42578 4.23633 1.27734 3.63867 1.27734C3.08398 1.27734 2.65039 1.40039 2.33789 1.64648C2.0293 1.88867 1.875 2.22656 1.875 2.66016C1.875 3.00781 2.02148 3.30273 2.31445 3.54492C2.61133 3.7832 3.11328 4.00195 3.82031 4.20117C4.53125 4.40039 5.08594 4.62109 5.48438 4.86328C5.88672 5.10156 6.18359 5.38086 6.375 5.70117C6.57031 6.02148 6.66797 6.39844 6.66797 6.83203C6.66797 7.52344 6.39844 8.07812 5.85938 8.49609C5.32031 8.91016 4.59961 9.11719 3.69727 9.11719C3.11133 9.11719 2.56445 9.00586 2.05664 8.7832C1.54883 8.55664 1.15625 8.24805 0.878906 7.85742C0.605469 7.4668 0.46875 7.02344 0.46875 6.52734H1.59961C1.59961 7.04297 1.78906 7.45117 2.16797 7.75195C2.55078 8.04883 3.06055 8.19727 3.69727 8.19727C4.29102 8.19727 4.74609 8.07617 5.0625 7.83398C5.37891 7.5918 5.53711 7.26172 5.53711 6.84375C5.53711 6.42578 5.39062 6.10352 5.09766 5.87695C4.80469 5.64648 4.27344 5.41992 3.50391 5.19727ZM8.96484 2.66016L8.99414 3.36328C9.45898 2.81641 10.0859 2.54297 10.875 2.54297C11.7617 2.54297 12.3652 2.88281 12.6855 3.5625C12.8965 3.25781 13.1699 3.01172 13.5059 2.82422C13.8457 2.63672 14.2461 2.54297 14.707 2.54297C16.0977 2.54297 16.8047 3.2793 16.8281 4.75195V9H15.7441V4.81641C15.7441 4.36328 15.6406 4.02539 15.4336 3.80273C15.2266 3.57617 14.8789 3.46289 14.3906 3.46289C13.9883 3.46289 13.6543 3.58398 13.3887 3.82617C13.123 4.06445 12.9688 4.38672 12.9258 4.79297V9H11.8359V4.8457C11.8359 3.92383 11.3848 3.46289 10.4824 3.46289C9.77148 3.46289 9.28516 3.76562 9.02344 4.37109V9H7.93945V2.66016H8.96484ZM22.3828 9C22.3203 8.875 22.2695 8.65234 22.2305 8.33203C21.7266 8.85547 21.125 9.11719 20.4258 9.11719C19.8008 9.11719 19.2871 8.94141 18.8848 8.58984C18.4863 8.23438 18.2871 7.78516 18.2871 7.24219C18.2871 6.58203 18.5371 6.07031 19.0371 5.70703C19.541 5.33984 20.248 5.15625 21.1582 5.15625H22.2129V4.6582C22.2129 4.2793 22.0996 3.97852 21.873 3.75586C21.6465 3.5293 21.3125 3.41602 20.8711 3.41602C20.4844 3.41602 20.1602 3.51367 19.8984 3.70898C19.6367 3.9043 19.5059 4.14062 19.5059 4.41797H18.416C18.416 4.10156 18.5273 3.79688 18.75 3.50391C18.9766 3.20703 19.2812 2.97266 19.6641 2.80078C20.0508 2.62891 20.4746 2.54297 20.9355 2.54297C21.666 2.54297 22.2383 2.72656 22.6523 3.09375C23.0664 3.45703 23.2812 3.95898 23.2969 4.59961V7.51758C23.2969 8.09961 23.3711 8.5625 23.5195 8.90625V9H22.3828ZM20.584 8.17383C20.9238 8.17383 21.2461 8.08594 21.5508 7.91016C21.8555 7.73438 22.0762 7.50586 22.2129 7.22461V5.92383H21.3633C20.0352 5.92383 19.3711 6.3125 19.3711 7.08984C19.3711 7.42969 19.4844 7.69531 19.7109 7.88672C19.9375 8.07812 20.2285 8.17383 20.584 8.17383ZM28.0605 3.63281C27.8965 3.60547 27.7188 3.5918 27.5273 3.5918C26.8164 3.5918 26.334 3.89453 26.0801 4.5V9H24.9961V2.66016H26.0508L26.0684 3.39258C26.4238 2.82617 26.9277 2.54297 27.5801 2.54297C27.791 2.54297 27.9512 2.57031 28.0605 2.625V3.63281ZM30.8262 1.125V2.66016H32.0098V3.49805H30.8262V7.42969C30.8262 7.68359 30.8789 7.875 30.9844 8.00391C31.0898 8.12891 31.2695 8.19141 31.5234 8.19141C31.6484 8.19141 31.8203 8.16797 32.0391 8.12109V9C31.7539 9.07812 31.4766 9.11719 31.207 9.11719C30.7227 9.11719 30.3574 8.9707 30.1113 8.67773C29.8652 8.38477 29.7422 7.96875 29.7422 7.42969V3.49805H28.5879V2.66016H29.7422V1.125H30.8262ZM41.25 5.05664H37.5527V8.08008H41.8477V9H36.4277V0.46875H41.7891V1.39453H37.5527V4.13672H41.25V5.05664ZM45.2051 4.97461L46.6113 2.66016H47.877L45.8027 5.79492L47.9414 9H46.6875L45.2227 6.62695L43.7578 9H42.498L44.6367 5.79492L42.5625 2.66016H43.8164L45.2051 4.97461ZM50.1152 3.42773C50.5957 2.83789 51.2207 2.54297 51.9902 2.54297C53.3301 2.54297 54.0059 3.29883 54.0176 4.81055V9H52.9336V4.80469C52.9297 4.34766 52.8242 4.00977 52.6172 3.79102C52.4141 3.57227 52.0957 3.46289 51.6621 3.46289C51.3105 3.46289 51.002 3.55664 50.7363 3.74414C50.4707 3.93164 50.2637 4.17773 50.1152 4.48242V9H49.0312V0H50.1152V3.42773ZM56.8184 9H55.7344V2.66016H56.8184V9ZM55.6465 0.978516C55.6465 0.802734 55.6992 0.654297 55.8047 0.533203C55.9141 0.412109 56.0742 0.351562 56.2852 0.351562C56.4961 0.351562 56.6562 0.412109 56.7656 0.533203C56.875 0.654297 56.9297 0.802734 56.9297 0.978516C56.9297 1.1543 56.875 1.30078 56.7656 1.41797C56.6562 1.53516 56.4961 1.59375 56.2852 1.59375C56.0742 1.59375 55.9141 1.53516 55.8047 1.41797C55.6992 1.30078 55.6465 1.1543 55.6465 0.978516ZM63.9258 5.90039C63.9258 6.86914 63.7031 7.64844 63.2578 8.23828C62.8125 8.82422 62.2148 9.11719 61.4648 9.11719C60.6641 9.11719 60.0449 8.83398 59.6074 8.26758L59.5547 9H58.5586V0H59.6426V3.35742C60.0801 2.81445 60.6836 2.54297 61.4531 2.54297C62.2227 2.54297 62.8262 2.83398 63.2637 3.41602C63.7051 3.99805 63.9258 4.79492 63.9258 5.80664V5.90039ZM62.8418 5.77734C62.8418 5.03906 62.6992 4.46875 62.4141 4.06641C62.1289 3.66406 61.7188 3.46289 61.1836 3.46289C60.4688 3.46289 59.9551 3.79492 59.6426 4.45898V7.20117C59.9746 7.86523 60.4922 8.19727 61.1953 8.19727C61.7148 8.19727 62.1191 7.99609 62.4082 7.59375C62.6973 7.19141 62.8418 6.58594 62.8418 5.77734ZM66.4746 9H65.3906V2.66016H66.4746V9ZM65.3027 0.978516C65.3027 0.802734 65.3555 0.654297 65.4609 0.533203C65.5703 0.412109 65.7305 0.351562 65.9414 0.351562C66.1523 0.351562 66.3125 0.412109 66.4219 0.533203C66.5312 0.654297 66.5859 0.802734 66.5859 0.978516C66.5859 1.1543 66.5312 1.30078 66.4219 1.41797C66.3125 1.53516 66.1523 1.59375 65.9414 1.59375C65.7305 1.59375 65.5703 1.53516 65.4609 1.41797C65.3555 1.30078 65.3027 1.1543 65.3027 0.978516ZM69.6855 1.125V2.66016H70.8691V3.49805H69.6855V7.42969C69.6855 7.68359 69.7383 7.875 69.8438 8.00391C69.9492 8.12891 70.1289 8.19141 70.3828 8.19141C70.5078 8.19141 70.6797 8.16797 70.8984 8.12109V9C70.6133 9.07812 70.3359 9.11719 70.0664 9.11719C69.582 9.11719 69.2168 8.9707 68.9707 8.67773C68.7246 8.38477 68.6016 7.96875 68.6016 7.42969V3.49805H67.4473V2.66016H68.6016V1.125H69.6855ZM73.3184 9H72.2344V2.66016H73.3184V9ZM72.1465 0.978516C72.1465 0.802734 72.1992 0.654297 72.3047 0.533203C72.4141 0.412109 72.5742 0.351562 72.7852 0.351562C72.9961 0.351562 73.1562 0.412109 73.2656 0.533203C73.375 0.654297 73.4297 0.802734 73.4297 0.978516C73.4297 1.1543 73.375 1.30078 73.2656 1.41797C73.1562 1.53516 72.9961 1.59375 72.7852 1.59375C72.5742 1.59375 72.4141 1.53516 72.3047 1.41797C72.1992 1.30078 72.1465 1.1543 72.1465 0.978516ZM74.7715 5.77148C74.7715 5.15039 74.8926 4.5918 75.1348 4.0957C75.3809 3.59961 75.7207 3.2168 76.1543 2.94727C76.5918 2.67773 77.0898 2.54297 77.6484 2.54297C78.5117 2.54297 79.209 2.8418 79.7402 3.43945C80.2754 4.03711 80.543 4.83203 80.543 5.82422V5.90039C80.543 6.51758 80.4238 7.07227 80.1855 7.56445C79.9512 8.05273 79.6133 8.43359 79.1719 8.70703C78.7344 8.98047 78.2305 9.11719 77.6602 9.11719C76.8008 9.11719 76.1035 8.81836 75.5684 8.2207C75.0371 7.62305 74.7715 6.83203 74.7715 5.84766V5.77148ZM75.8613 5.90039C75.8613 6.60352 76.0234 7.16797 76.3477 7.59375C76.6758 8.01953 77.1133 8.23242 77.6602 8.23242C78.2109 8.23242 78.6484 8.01758 78.9727 7.58789C79.2969 7.1543 79.459 6.54883 79.459 5.77148C79.459 5.07617 79.293 4.51367 78.9609 4.08398C78.6328 3.65039 78.1953 3.43359 77.6484 3.43359C77.1133 3.43359 76.6816 3.64648 76.3535 4.07227C76.0254 4.49805 75.8613 5.10742 75.8613 5.90039ZM82.9277 2.66016L82.9629 3.45703C83.4473 2.84766 84.0801 2.54297 84.8613 2.54297C86.2012 2.54297 86.877 3.29883 86.8887 4.81055V9H85.8047V4.80469C85.8008 4.34766 85.6953 4.00977 85.4883 3.79102C85.2852 3.57227 84.9668 3.46289 84.5332 3.46289C84.1816 3.46289 83.873 3.55664 83.6074 3.74414C83.3418 3.93164 83.1348 4.17773 82.9863 4.48242V9H81.9023V2.66016H82.9277ZM94.1836 5.19727C93.2188 4.91992 92.5156 4.58008 92.0742 4.17773C91.6367 3.77148 91.418 3.27148 91.418 2.67773C91.418 2.00586 91.6855 1.45117 92.2207 1.01367C92.7598 0.572266 93.459 0.351562 94.3184 0.351562C94.9043 0.351562 95.4258 0.464844 95.8828 0.691406C96.3438 0.917969 96.6992 1.23047 96.9492 1.62891C97.2031 2.02734 97.3301 2.46289 97.3301 2.93555H96.1992C96.1992 2.41992 96.0352 2.01562 95.707 1.72266C95.3789 1.42578 94.916 1.27734 94.3184 1.27734C93.7637 1.27734 93.3301 1.40039 93.0176 1.64648C92.709 1.88867 92.5547 2.22656 92.5547 2.66016C92.5547 3.00781 92.7012 3.30273 92.9941 3.54492C93.291 3.7832 93.793 4.00195 94.5 4.20117C95.2109 4.40039 95.7656 4.62109 96.1641 4.86328C96.5664 5.10156 96.8633 5.38086 97.0547 5.70117C97.25 6.02148 97.3477 6.39844 97.3477 6.83203C97.3477 7.52344 97.0781 8.07812 96.5391 8.49609C96 8.91016 95.2793 9.11719 94.377 9.11719C93.791 9.11719 93.2441 9.00586 92.7363 8.7832C92.2285 8.55664 91.8359 8.24805 91.5586 7.85742C91.2852 7.4668 91.1484 7.02344 91.1484 6.52734H92.2793C92.2793 7.04297 92.4688 7.45117 92.8477 7.75195C93.2305 8.04883 93.7402 8.19727 94.377 8.19727C94.9707 8.19727 95.4258 8.07617 95.7422 7.83398C96.0586 7.5918 96.2168 7.26172 96.2168 6.84375C96.2168 6.42578 96.0703 6.10352 95.7773 5.87695C95.4844 5.64648 94.9531 5.41992 94.1836 5.19727ZM100.699 7.41211L102.176 2.66016H103.336L100.787 9.97852C100.393 11.0332 99.7656 11.5605 98.9062 11.5605L98.7012 11.543L98.2969 11.4668V10.5879L98.5898 10.6113C98.957 10.6113 99.2422 10.5371 99.4453 10.3887C99.6523 10.2402 99.8223 9.96875 99.9551 9.57422L100.195 8.92969L97.9336 2.66016H99.1172L100.699 7.41211ZM108 7.31836C108 7.02539 107.889 6.79883 107.666 6.63867C107.447 6.47461 107.062 6.33398 106.512 6.2168C105.965 6.09961 105.529 5.95898 105.205 5.79492C104.885 5.63086 104.646 5.43555 104.49 5.20898C104.338 4.98242 104.262 4.71289 104.262 4.40039C104.262 3.88086 104.48 3.44141 104.918 3.08203C105.359 2.72266 105.922 2.54297 106.605 2.54297C107.324 2.54297 107.906 2.72852 108.352 3.09961C108.801 3.4707 109.025 3.94531 109.025 4.52344H107.936C107.936 4.22656 107.809 3.9707 107.555 3.75586C107.305 3.54102 106.988 3.43359 106.605 3.43359C106.211 3.43359 105.902 3.51953 105.68 3.69141C105.457 3.86328 105.346 4.08789 105.346 4.36523C105.346 4.62695 105.449 4.82422 105.656 4.95703C105.863 5.08984 106.236 5.2168 106.775 5.33789C107.318 5.45898 107.758 5.60352 108.094 5.77148C108.43 5.93945 108.678 6.14258 108.838 6.38086C109.002 6.61523 109.084 6.90234 109.084 7.24219C109.084 7.80859 108.857 8.26367 108.404 8.60742C107.951 8.94727 107.363 9.11719 106.641 9.11719C106.133 9.11719 105.684 9.02734 105.293 8.84766C104.902 8.66797 104.596 8.41797 104.373 8.09766C104.154 7.77344 104.045 7.42383 104.045 7.04883H105.129C105.148 7.41211 105.293 7.70117 105.562 7.91602C105.836 8.12695 106.195 8.23242 106.641 8.23242C107.051 8.23242 107.379 8.15039 107.625 7.98633C107.875 7.81836 108 7.5957 108 7.31836ZM111.967 1.125V2.66016H113.15V3.49805H111.967V7.42969C111.967 7.68359 112.02 7.875 112.125 8.00391C112.23 8.12891 112.41 8.19141 112.664 8.19141C112.789 8.19141 112.961 8.16797 113.18 8.12109V9C112.895 9.07812 112.617 9.11719 112.348 9.11719C111.863 9.11719 111.498 8.9707 111.252 8.67773C111.006 8.38477 110.883 7.96875 110.883 7.42969V3.49805H109.729V2.66016H110.883V1.125H111.967ZM117.053 9.11719C116.193 9.11719 115.494 8.83594 114.955 8.27344C114.416 7.70703 114.146 6.95117 114.146 6.00586V5.80664C114.146 5.17773 114.266 4.61719 114.504 4.125C114.746 3.62891 115.082 3.24219 115.512 2.96484C115.945 2.68359 116.414 2.54297 116.918 2.54297C117.742 2.54297 118.383 2.81445 118.84 3.35742C119.297 3.90039 119.525 4.67773 119.525 5.68945V6.14062H115.23C115.246 6.76562 115.428 7.27148 115.775 7.6582C116.127 8.04102 116.572 8.23242 117.111 8.23242C117.494 8.23242 117.818 8.1543 118.084 7.99805C118.35 7.8418 118.582 7.63477 118.781 7.37695L119.443 7.89258C118.912 8.70898 118.115 9.11719 117.053 9.11719ZM116.918 3.43359C116.48 3.43359 116.113 3.59375 115.816 3.91406C115.52 4.23047 115.336 4.67578 115.266 5.25H118.441V5.16797C118.41 4.61719 118.262 4.19141 117.996 3.89062C117.73 3.58594 117.371 3.43359 116.918 3.43359ZM121.805 2.66016L121.834 3.36328C122.299 2.81641 122.926 2.54297 123.715 2.54297C124.602 2.54297 125.205 2.88281 125.525 3.5625C125.736 3.25781 126.01 3.01172 126.346 2.82422C126.686 2.63672 127.086 2.54297 127.547 2.54297C128.938 2.54297 129.645 3.2793 129.668 4.75195V9H128.584V4.81641C128.584 4.36328 128.48 4.02539 128.273 3.80273C128.066 3.57617 127.719 3.46289 127.23 3.46289C126.828 3.46289 126.494 3.58398 126.229 3.82617C125.963 4.06445 125.809 4.38672 125.766 4.79297V9H124.676V4.8457C124.676 3.92383 124.225 3.46289 123.322 3.46289C122.611 3.46289 122.125 3.76562 121.863 4.37109V9H120.779V2.66016H121.805Z" fill=""/>
</svg>
