<svg width="24" height="24" viewBox="0 0 24 24" fill="" xmlns="http://www.w3.org/2000/svg">
<mask id="mask0" mask-type="alpha" maskUnits="userSpaceOnUse" x="2" y="2" width="20" height="20">
<path d="M21.2921 13.6696C21.2747 13.6378 21.2856 13.7049 21.2921 13.6696C21.3953 13.1062 21.4495 12.5298 21.4495 11.9534C21.4495 10.6755 21.2 9.43577 20.7068 8.26853C20.231 7.14118 19.5503 6.12873 18.6825 5.25944C17.816 4.39004 16.8053 3.70785 15.6812 3.231C14.5172 2.73725 13.2804 2.48701 12.0056 2.48701C11.4048 2.48701 10.803 2.54355 10.2173 2.65637C10.2161 2.65661 10.2129 2.65698 10.2129 2.65698C9.4093 2.2287 8.50574 2 7.59094 2C6.09753 2 4.69348 2.58295 3.63757 3.64178C2.58179 4.70024 2 6.1078 2 7.6047C2 8.55756 2.24463 9.49426 2.70337 10.3218C2.61035 10.8581 2.56116 11.4062 2.56116 11.9534C2.56116 13.2317 2.81079 14.4712 3.30396 15.6386C3.77905 16.7664 4.45996 17.7782 5.32703 18.6476C6.19482 19.5168 7.2041 20.2001 8.32947 20.6758C9.49353 21.1705 10.7307 21.4208 12.0055 21.4208C12.5604 21.4208 13.1166 21.3701 13.6595 21.2735C14.496 21.7479 15.443 22 16.41 22C17.9031 22 19.3065 21.4182 20.3625 20.3588C21.4187 19.301 22 17.8932 22 16.3963C22 15.4402 21.7542 14.5005 21.2921 13.6696ZM12.0432 17.7512C8.68811 17.7512 7.18701 16.0978 7.18701 14.8585C7.18701 14.2231 7.65515 13.7774 8.30029 13.7774C9.73621 13.7774 9.36438 15.844 12.0432 15.844C13.4147 15.844 14.1719 15.0976 14.1719 14.3338C14.1719 13.8743 13.9458 13.365 13.0427 13.142L10.0586 12.3952C7.65515 11.7911 7.21912 10.4886 7.21912 9.26434C7.21912 6.72244 9.60669 5.76812 11.8488 5.76812C13.9142 5.76812 16.3489 6.91236 16.3489 8.43727C16.3489 9.0907 15.7844 9.47065 15.1395 9.47065C13.9142 9.47065 14.1395 7.7705 11.6713 7.7705C10.4465 7.7705 9.76807 8.32653 9.76807 9.12203C9.76807 9.91618 10.7355 10.1698 11.5753 10.3616L13.7842 10.8531C16.2037 11.3935 16.8171 12.8095 16.8171 14.1433C16.8174 16.2088 15.2356 17.7512 12.0432 17.7512Z" fill=""/>
</mask>
<g mask="url(#mask0)">
<rect width="24" height="24" fill=""/>
</g>
</svg>
