<svg width="24" height="24" viewBox="0 0 24 24" fill="" xmlns="http://www.w3.org/2000/svg">
<mask id="mask0" mask-type="alpha" maskUnits="userSpaceOnUse" x="2" y="3" width="20" height="19">
<path d="M19.0259 5.35225C17.1439 3.8353 14.6486 3 12 3C9.35138 3 6.85611 3.8353 4.97409 5.35225C3.05621 6.8977 2 8.96344 2 11.1687C2 13.244 2.95108 15.221 4.67807 16.7353C6.23798 18.1034 8.3092 18.9865 10.5582 19.2517V21.4182C10.5582 21.7395 10.8205 22 11.1441 22C12.1576 22 14.9012 20.765 17.2174 18.9929C18.6011 17.9343 19.71 16.7975 20.513 15.6137C21.4997 14.1596 22 12.664 22 11.1687C22 8.96344 20.9438 6.8977 19.0259 5.35225ZM8.42792 13.6211H6.43832C6.12918 13.6211 5.90472 13.4404 5.90472 13.1911V9.14025C5.90472 8.88662 6.1394 8.71632 6.48853 8.71632C6.83765 8.71632 7.07217 8.88662 7.07217 9.14025V12.5617H8.42792C8.67542 12.5617 8.84845 12.7795 8.84845 13.0914C8.84845 13.3984 8.6716 13.6211 8.42792 13.6211ZM10.3051 13.1911C10.3051 13.4404 10.0595 13.6211 9.72141 13.6211C9.37762 13.6211 9.13776 13.4443 9.13776 13.1911V9.14025C9.13776 8.88662 9.37228 8.71632 9.72141 8.71632C10.0705 8.71632 10.3051 8.88662 10.3051 9.14025V13.1911ZM14.2975 13.1911C14.2975 13.4404 14.052 13.6211 13.7137 13.6211C13.4261 13.6211 13.2158 13.5048 13.089 13.2751L12.0694 11.3822V13.1911C12.0694 13.4404 11.8239 13.6211 11.4858 13.6211C11.142 13.6211 10.902 13.4443 10.902 13.1911V9.14647C10.902 8.8892 11.1367 8.71632 11.4858 8.71632C11.8639 8.71632 12.0352 8.83359 12.2501 9.23965L13.1301 10.9283V9.14025C13.1301 8.88662 13.3646 8.71632 13.7137 8.71632C14.0628 8.71632 14.2975 8.88662 14.2975 9.14025V13.1911ZM16.8399 10.6733C17.0868 10.6733 17.273 10.8877 17.273 11.1719C17.273 11.4075 17.1213 11.658 16.8399 11.658H16.0617V12.5616H17.6621C17.9132 12.5616 18.0953 12.787 18.0953 13.0975C18.0953 13.401 17.9132 13.6211 17.6621 13.6211H15.4277C15.1186 13.6211 14.8943 13.4402 14.8943 13.1911V9.14647C14.8943 8.89723 15.1186 8.71632 15.4277 8.71632H17.6621C17.9132 8.71632 18.0953 8.93647 18.0953 9.23995C18.0953 9.55055 17.9132 9.77586 17.6621 9.77586H16.0617V10.6733H16.8399Z" fill=""/>
</mask>
<g mask="url(#mask0)">
<rect width="24" height="24" fill=""/>
</g>
</svg>
