<svg width="24" height="24" viewBox="0 0 24 24" fill="" xmlns="http://www.w3.org/2000/svg">
<mask id="mask0" mask-type="alpha" maskUnits="userSpaceOnUse" x="2" y="4" width="20" height="17">
<path fill-rule="evenodd" clip-rule="evenodd" d="M2 10.0714C2 6.71879 5.3575 4 9.5 4C13.16 4 16.2037 6.12379 16.8637 8.93121C16.4987 8.8875 16.1287 8.85714 15.75 8.85714C11.6138 8.85714 8.25 11.5808 8.25 14.9286C8.25 15.3184 8.3 15.6984 8.3875 16.0688C7.74625 15.9923 7.14625 15.8284 6.56875 15.6292L3.875 16.75L4.86375 14.829C3.1225 13.7191 2 12.0046 2 10.0714ZM6.0625 7.64286C6.0625 8.14557 6.4825 8.55357 7 8.55357C7.5175 8.55357 7.9375 8.14557 7.9375 7.64286C7.9375 7.14014 7.5175 6.73214 7 6.73214C6.4825 6.73214 6.0625 7.14014 6.0625 7.64286ZM11.0625 7.64286C11.0625 8.14557 11.4825 8.55357 12 8.55357C12.5175 8.55357 12.9375 8.14557 12.9375 7.64286C12.9375 7.14014 12.5175 6.73214 12 6.73214C11.4825 6.73214 11.0625 7.14014 11.0625 7.64286ZM15.75 10.0714C19.2013 10.0714 22 12.2462 22 14.9286C22 16.4816 21.045 17.8489 19.585 18.7378L20.75 21L17.3813 19.5975C16.8575 19.708 16.3175 19.7857 15.75 19.7857C12.2987 19.7857 9.5 17.6109 9.5 14.9286C9.5 12.2462 12.2987 10.0714 15.75 10.0714ZM12.9375 13.7143C12.9375 14.217 13.3575 14.625 13.875 14.625C14.3925 14.625 14.8125 14.217 14.8125 13.7143C14.8125 13.2116 14.3925 12.8036 13.875 12.8036C13.3575 12.8036 12.9375 13.2116 12.9375 13.7143ZM16.6875 13.7143C16.6875 14.217 17.1075 14.625 17.625 14.625C18.1425 14.625 18.5625 14.217 18.5625 13.7143C18.5625 13.2116 18.1425 12.8036 17.625 12.8036C17.1075 12.8036 16.6875 13.2116 16.6875 13.7143Z" fill=""/>
</mask>
<g mask="url(#mask0)">
<rect width="24" height="24" fill=""/>
</g>
</svg>
