<svg width="24" height="24" viewBox="0 0 24 24" fill="" xmlns="http://www.w3.org/2000/svg">
<mask id="mask0" mask-type="alpha" maskUnits="userSpaceOnUse" x="2" y="2" width="20" height="20">
<path fill-rule="evenodd" clip-rule="evenodd" d="M3.75781 17.3125H13.7578C13.9461 17.3125 14.1229 17.2221 14.2333 17.0693C14.3432 16.9159 14.3735 16.7197 14.3134 16.5411L9.62648 2.40113C9.54695 2.16137 9.32266 2 9.07031 2H3.75781C2.78852 2 2 2.78852 2 3.75781V15.5547C2 16.524 2.78852 17.3125 3.75781 17.3125ZM6.72656 6.76562C7.50992 6.76562 8.2452 7.07063 8.79852 7.62395C9.02684 7.8534 9.02684 8.22418 8.79793 8.45309C8.56906 8.68082 8.1977 8.68141 7.96879 8.4525C7.6375 8.12004 7.19633 7.9375 6.72656 7.9375C5.75727 7.9375 4.96875 8.72602 4.96875 9.69531C4.96875 10.6646 5.75727 11.4531 6.72656 11.4531C7.48945 11.4531 8.13375 10.9618 8.37645 10.2812H7.3125C6.98863 10.2812 6.72656 10.0192 6.72656 9.69531C6.72656 9.37145 6.98863 9.10938 7.3125 9.10938H9.07031C9.39418 9.10938 9.65625 9.37145 9.65625 9.69531C9.65625 11.3107 8.34191 12.625 6.72656 12.625C5.11121 12.625 3.79688 11.3107 3.79688 9.69531C3.79688 8.07996 5.11121 6.76562 6.72656 6.76562ZM20.2422 6.76563H12.3123L15.4261 16.1328C15.5641 16.5479 15.5397 17.0146 15.3589 17.4132L13.2792 22H20.2422C21.213 22 22 21.213 22 20.2422V8.52344C22 7.55262 21.213 6.76563 20.2422 6.76563ZM19.6172 12.5858H19.5475C19.3723 13.3663 18.8666 14.3002 18.0372 15.3724C18.4937 15.9048 18.8517 16.265 18.8597 16.2731L18.8598 16.2732C19.0885 16.5021 19.0884 16.873 18.8595 17.1018C18.7451 17.2161 18.5952 17.2733 18.4453 17.2733C18.2954 17.2733 18.1455 17.2161 18.0311 17.1017C18.0069 17.0775 17.6951 16.7643 17.2786 16.2877C16.8518 16.771 16.5323 17.0858 16.512 17.1056C16.398 17.2175 16.2498 17.2733 16.1017 17.2733C15.9498 17.2733 15.7981 17.2147 15.6834 17.0977C15.4567 16.8668 15.4603 16.4958 15.6912 16.2691C15.9445 16.0203 16.2332 15.7127 16.526 15.373C16.3542 15.1501 16.1819 14.9148 16.0175 14.6731C15.8355 14.4055 15.905 14.0411 16.1725 13.8591C16.4401 13.6771 16.8045 13.7465 16.9865 14.0141C17.082 14.1546 17.181 14.2931 17.2813 14.4285C17.7469 13.7966 18.1472 13.1398 18.3336 12.5858H14.9297C14.6061 12.5858 14.3438 12.3234 14.3438 11.9998C14.3438 11.6763 14.6061 11.4139 14.9297 11.4139H16.6875V10.828C16.6875 10.5044 16.9499 10.242 17.2735 10.242C17.5971 10.242 17.8594 10.5044 17.8594 10.828V11.4139H19.6172C19.9408 11.4139 20.2032 11.6763 20.2032 11.9998C20.2032 12.3234 19.9408 12.5858 19.6172 12.5858ZM10.6117 20.2918C10.4646 19.8373 10.2743 19.2489 10.0214 18.4844H13.5731L12.1351 21.6559C12.037 21.8721 11.824 22 11.6011 22C11.5201 22 11.438 21.9832 11.3594 21.9476C11.111 21.8349 11.1087 21.8277 10.6117 20.2918Z" fill=""/>
</mask>
<g mask="url(#mask0)">
<rect width="24" height="24" fill=""/>
</g>
</svg>
