<svg width="80" height="27" viewBox="0 0 80 27" fill="" xmlns="http://www.w3.org/2000/svg">
<path fill-rule="evenodd" clip-rule="evenodd" d="M21.3384 0H12.3298C7.35496 0 2.03608 6.04376 0.449544 13.5005C-0.787631 19.317 0.609799 24.2689 3.64665 26.1686H6.76309C8.14129 26.1686 9.59053 25.627 10.9949 24.6147C9.15731 22.1809 8.47675 18.1126 9.45859 13.5005C11.0441 6.04376 16.363 0 21.3384 0ZM33.4932 18.7459H40.2416V17.3046H33.4761C32.8971 17.3046 32.4184 17.0773 32.0402 16.6227C31.6689 16.1869 31.4675 15.6319 31.4729 15.0597V14.3777H40.1748V12.937H31.4729V11.8879C31.4672 11.309 31.6683 10.747 32.0402 10.303C32.4184 9.84055 32.8971 9.60931 33.4761 9.60931H40.2416V8.16855H33.4932C32.4865 8.16855 31.6576 8.51593 31.0066 9.2107C30.3556 9.90547 30.0301 10.7555 30.0301 11.7609V15.1536C30.0297 16.1589 30.3552 17.009 31.0066 17.7038C31.6579 18.3985 32.4868 18.7459 33.4932 18.7459ZM53.4499 18.7458L53.4718 17.6546L48.8206 13.5463L53.4734 9.40912L53.451 8.32268H52.4237L47.701 12.5217L42.9777 8.32268H41.951L41.9286 9.4086L46.5818 13.5463L41.9291 17.6551L41.951 18.7458H42.9729L47.7004 14.5415L52.4291 18.7458H53.4499ZM67.0359 12.7143C67.0359 13.7488 66.7177 14.6063 66.0813 15.2868C65.4449 15.9674 64.608 16.3073 63.5706 16.3066H61.1507L58.709 16.2847L58.7314 14.8653H63.5861C64.1801 14.8653 64.6628 14.6362 65.0343 14.178C65.3997 13.735 65.5968 13.1773 65.5909 12.6033V11.916C65.5909 11.3112 65.4128 10.8011 65.0567 10.3856C64.7006 9.97004 64.2259 9.76318 63.6326 9.76496H58.8473C58.5729 9.7644 58.3011 9.81789 58.0473 9.92237C57.7936 10.0269 57.5631 10.1803 57.3688 10.3739C57.1745 10.5674 57.0203 10.7974 56.9151 11.0506C56.8098 11.3037 56.7556 11.5751 56.7554 11.8493V18.8125H55.3131V12.0045C55.3131 10.9992 55.6499 10.1344 56.3233 9.4101C56.9967 8.6858 57.8364 8.32365 58.8425 8.32365H63.6155C64.6219 8.32365 65.4433 8.63405 66.0797 9.25482C66.716 9.8756 67.0342 10.6887 67.0342 11.694L67.0359 12.7143ZM79.0566 17.6954C79.6855 16.9949 80 16.1502 80 15.1612V11.7093C79.9996 10.7064 79.674 9.87664 79.023 9.21994C78.372 8.56323 77.5433 8.23488 76.5369 8.23488H71.6309C70.6099 8.23488 69.7775 8.5595 69.1336 9.20873C68.4897 9.85797 68.1678 10.6915 68.1678 11.7093V15.1612C68.1681 16.1651 68.4938 17.0136 69.1448 17.7066C69.7958 18.3996 70.6245 18.7461 71.6309 18.7461H76.6255C77.6174 18.7461 78.4277 18.3959 79.0566 17.6954ZM78.5577 11.9457V15.0545V15.0561C78.5632 15.627 78.3656 16.1813 78 16.6201C77.6279 17.0755 77.1444 17.3032 76.5497 17.3032H71.6192C71.0244 17.3032 70.5412 17.0755 70.1694 16.6201C69.803 16.1811 69.6052 15.6261 69.6112 15.0545V11.9457C69.6026 11.3672 69.8005 10.8047 70.1694 10.3587C70.5408 9.90297 71.0241 9.67512 71.6192 9.67512H76.5497C77.1448 9.67512 77.6282 9.90297 78 10.3587C78.3685 10.8048 78.5662 11.3673 78.5577 11.9457ZM24.2775 0.831146C27.3143 2.73083 28.7112 7.68493 27.4746 13.4982V13.4992C25.888 20.9565 20.5691 26.9998 15.5943 26.9998H6.58574C11.5606 26.9998 16.88 20.9539 18.466 13.4992C19.4473 8.88664 18.7673 4.81888 16.9292 2.38451C18.3341 1.37224 19.7833 0.831146 21.1615 0.831146H24.2775Z" fill=""/>
</svg>
